<svg width="400" height="87" viewBox="0 0 400 87" fill="none" xmlns="http://www.w3.org/2000/svg">
<g clip-path="url(#clip0_62_2)">
<path d="M251.094 0H0V17.0368H270.885L251.094 0Z" fill="#4A2CC5"/>
<path d="M196.803 27.1453L0 25.5552V42.592H212.96L196.803 27.1453Z" fill="#5A83EB"/>
<path d="M83.7639 71.3365C84.5635 71.4092 85.4722 71.4818 86.4898 71.5545C87.5802 71.5545 88.8523 71.5545 90.3061 71.5545C98.8108 71.5545 105.099 69.4101 109.169 65.1214C113.313 60.8328 115.384 54.9084 115.384 47.3487C115.384 39.4254 113.422 33.4284 109.496 29.3578C105.571 25.2872 99.356 23.2518 90.8512 23.2518C89.6881 23.2518 88.4887 23.2881 87.2531 23.3609C86.0174 23.3609 84.8543 23.4336 83.7639 23.5789V71.3365ZM132.939 47.3487C132.939 53.8908 131.921 59.5969 129.886 64.4672C127.851 69.3375 124.943 73.3718 121.163 76.5702C117.456 79.7685 112.913 82.1673 107.534 83.7665C102.155 85.3657 96.1212 86.1653 89.4338 86.1653C86.3808 86.1653 82.8189 86.02 78.7483 85.7291C74.6777 85.5111 70.6797 85.0022 66.7544 84.2026V10.6037C70.6797 9.8768 74.7503 9.40432 78.9664 9.18625C83.255 8.89548 86.926 8.75011 89.9789 8.75011C96.4483 8.75011 102.3 9.477 107.534 10.9308C112.84 12.3846 117.383 14.6744 121.163 17.8001C124.943 20.9258 127.851 24.9236 129.886 29.794C131.921 34.6643 132.939 40.5157 132.939 47.3487ZM162.303 85.184H146.056V27.8313H162.303V85.184ZM163.829 11.2579C163.829 14.2382 162.848 16.6007 160.885 18.3452C158.995 20.017 156.742 20.853 154.125 20.853C151.508 20.853 149.218 20.017 147.256 18.3452C145.366 16.6007 144.421 14.2382 144.421 11.2579C144.421 8.27761 145.366 5.95153 147.256 4.27966C149.218 2.53509 151.508 1.6628 154.125 1.6628C156.742 1.6628 158.995 2.53509 160.885 4.27966C162.848 5.95153 163.829 8.27761 163.829 11.2579ZM177.029 13.5477L193.276 10.9308V27.8313H212.793V41.3517H193.276V61.5233C193.276 64.9397 193.857 67.6655 195.02 69.7009C196.255 71.7363 198.692 72.7539 202.326 72.7539C204.07 72.7539 205.85 72.6086 207.668 72.3178C209.558 71.9544 211.266 71.4818 212.793 70.9003L215.083 83.5484C213.12 84.348 210.939 85.0386 208.541 85.6201C206.142 86.2016 203.198 86.4924 199.709 86.4924C195.274 86.4924 191.604 85.9109 188.696 84.7478C185.788 83.5121 183.462 81.8402 181.718 79.7322C179.973 77.5515 178.738 74.9346 178.011 71.8816C177.356 68.8286 177.029 65.4485 177.029 61.7413V13.5477ZM226.024 85.184V3.1893L242.27 0.572449V28.0494C243.36 27.686 244.74 27.3589 246.412 27.0681C248.158 26.7047 249.829 26.5229 251.429 26.5229C256.08 26.5229 259.934 27.1771 262.987 28.4855C266.111 29.7212 268.583 31.5022 270.401 33.8283C272.291 36.1543 273.599 38.9166 274.326 42.115C275.125 45.3133 275.526 48.8752 275.526 52.8004V85.184H259.28V54.7631C259.28 49.5294 258.588 45.8222 257.208 43.6415C255.899 41.4607 253.427 40.3704 249.793 40.3704C248.338 40.3704 246.959 40.5157 245.65 40.8065C244.413 41.0246 243.287 41.279 242.27 41.5698V85.184H226.024ZM312.146 73.8443C313.746 73.8443 315.273 73.808 316.726 73.7352C318.179 73.6625 319.343 73.5535 320.215 73.4081V61.0871C319.561 60.9418 318.579 60.7963 317.271 60.651C315.963 60.5057 314.763 60.4329 313.673 60.4329C312.146 60.4329 310.693 60.542 309.311 60.76C308.003 60.9053 306.839 61.2325 305.822 61.7413C304.805 62.2502 304.005 62.9407 303.424 63.813C302.843 64.6853 302.551 65.7757 302.551 67.0841C302.551 69.6282 303.388 71.4092 305.059 72.4268C306.804 73.3718 309.167 73.8443 312.146 73.8443ZM310.838 26.3048C315.636 26.3048 319.634 26.85 322.832 27.9403C326.03 29.0307 328.575 30.5935 330.464 32.6289C332.427 34.6643 333.809 37.1356 334.608 40.0433C335.407 42.951 335.807 46.1856 335.807 49.7474V83.5484C333.482 84.0573 330.246 84.6388 326.103 85.293C321.96 86.02 316.944 86.3834 311.056 86.3834C307.349 86.3834 303.969 86.0562 300.916 85.402C297.936 84.7478 295.355 83.6938 293.174 82.24C290.993 80.7135 289.322 78.7509 288.159 76.3521C286.995 73.9533 286.414 71.0094 286.414 67.5202C286.414 64.1764 287.068 61.3415 288.377 59.0155C289.758 56.6894 291.574 54.8358 293.828 53.4546C296.082 52.0735 298.662 51.0922 301.57 50.5107C304.478 49.8565 307.494 49.5294 310.62 49.5294C312.727 49.5294 314.581 49.6384 316.181 49.8565C317.852 50.0018 319.198 50.2199 320.215 50.5107V48.9842C320.215 46.222 319.379 44.0048 317.707 42.333C316.036 40.6612 313.128 39.8252 308.984 39.8252C306.223 39.8252 303.497 40.0433 300.807 40.4794C298.117 40.8428 295.791 41.388 293.828 42.115L291.757 29.0307C292.702 28.7399 293.864 28.4492 295.246 28.1584C296.699 27.795 298.263 27.5042 299.934 27.2861C301.606 26.9953 303.35 26.7772 305.168 26.6319C307.058 26.4139 308.949 26.3048 310.838 26.3048ZM350.498 29.794C353.26 28.9944 356.822 28.2675 361.183 27.6132C365.545 26.8863 370.124 26.5229 374.922 26.5229C379.793 26.5229 383.827 27.1771 387.025 28.4855C390.296 29.7212 392.877 31.5022 394.766 33.8283C396.656 36.1543 398.002 38.9166 398.801 42.115C399.6 45.3133 400 48.8752 400 52.8004V85.184H383.754V54.7631C383.754 49.5294 383.064 45.8222 381.682 43.6415C380.3 41.4607 377.721 40.3704 373.941 40.3704C372.777 40.3704 371.542 40.4431 370.233 40.5885C368.925 40.6612 367.761 40.7702 366.744 40.9156V85.184H350.498V29.794Z" fill="white"/>
</g>
<defs>
<clipPath id="clip0_62_2">
<rect width="400" height="86.6667" fill="white"/>
</clipPath>
</defs>
</svg>
