<svg width="15" height="14" viewBox="0 0 15 14" fill="none" xmlns="http://www.w3.org/2000/svg">
<g clip-path="url(#clip0_333_540)">
<path d="M7.50008 0.833374C5.39591 0.833374 3.71102 1.79171 2.48446 2.93233C1.26571 4.06254 0.450602 5.41671 0.0651855 6.34639C-0.020752 6.55212 -0.020752 6.78129 0.0651855 6.98702C0.450602 7.91671 1.26571 9.27087 2.48446 10.4011C3.71102 11.5417 5.39591 12.5 7.50008 12.5C9.60425 12.5 11.2891 11.5417 12.5157 10.4011C13.7345 9.26827 14.5496 7.91671 14.9376 6.98702C15.0235 6.78129 15.0235 6.55212 14.9376 6.34639C14.5496 5.41671 13.7345 4.06254 12.5157 2.93233C11.2891 1.79171 9.60425 0.833374 7.50008 0.833374ZM11.2501 6.66671C11.2501 8.73702 9.57039 10.4167 7.50008 10.4167C5.42977 10.4167 3.75008 8.73702 3.75008 6.66671C3.75008 4.59639 5.42977 2.91671 7.50008 2.91671C9.57039 2.91671 11.2501 4.59639 11.2501 6.66671ZM7.50008 5.00004C7.50008 5.91931 6.75269 6.66671 5.83341 6.66671C5.53394 6.66671 5.25269 6.58858 5.0105 6.44796C5.00529 6.52087 5.00008 6.59119 5.00008 6.66671C5.00008 8.04692 6.11987 9.16671 7.50008 9.16671C8.88029 9.16671 10.0001 8.04692 10.0001 6.66671C10.0001 5.2865 8.88029 4.16671 7.50008 4.16671C7.42716 4.16671 7.35425 4.16931 7.28133 4.17712C7.41935 4.41931 7.50008 4.70056 7.50008 5.00004Z" fill="white"/>
</g>
<defs>
<clipPath id="clip0_333_540">
<rect width="15" height="13.3333" fill="white"/>
</clipPath>
</defs>
</svg>
