<svg width="30" height="29" viewBox="0 0 30 29" fill="none" xmlns="http://www.w3.org/2000/svg">
<path d="M25.6281 4.10163C24.2458 2.79661 22.5995 1.76187 20.7852 1.05769C18.9708 0.353512 17.0247 -0.00600881 15.0603 7.59635e-05C6.82914 7.59635e-05 0.120603 6.27221 0.120603 13.9679C0.120603 16.4345 0.81407 18.8306 2.11055 20.9448L0 28.1895L7.91457 26.2444C10.1005 27.3579 12.5578 27.9499 15.0603 27.9499C23.2915 27.9499 30 21.6777 30 13.982C30 10.2469 28.4472 6.73734 25.6281 4.10163ZM15.0603 25.5819C12.8291 25.5819 10.6432 25.0182 8.72864 23.9611L8.27638 23.7073L3.57286 24.8631L4.82412 20.5783L4.52261 20.1414C3.28274 18.2908 2.62451 16.1516 2.62312 13.9679C2.62312 7.56893 8.201 2.35389 15.0452 2.35389C18.3618 2.35389 21.4824 3.56603 23.8191 5.76481C24.9763 6.84145 25.8933 8.1222 26.517 9.53278C27.1407 10.9434 27.4586 12.4557 27.4523 13.982C27.4824 20.381 21.9045 25.5819 15.0603 25.5819ZM21.8744 16.8996C21.4975 16.7305 19.6583 15.8848 19.3266 15.7579C18.9799 15.6452 18.7387 15.5888 18.4824 15.9271C18.2261 16.2794 17.5176 17.0688 17.3065 17.2943C17.0955 17.5339 16.8693 17.5621 16.4925 17.3788C16.1156 17.2097 14.9095 16.8291 13.4925 15.6452C12.3769 14.7149 11.6382 13.5733 11.4121 13.2209C11.201 12.8685 11.3819 12.6853 11.5779 12.5021C11.7437 12.347 11.9548 12.0933 12.1357 11.896C12.3166 11.6987 12.392 11.5436 12.5126 11.3181C12.6332 11.0785 12.5729 10.8812 12.4824 10.712C12.392 10.5429 11.6382 8.82335 11.3367 8.11862C11.0352 7.44207 10.7186 7.52664 10.4925 7.51255H9.76884C9.51256 7.51255 9.1206 7.59712 8.77387 7.94948C8.44221 8.30185 7.47739 9.14753 7.47739 10.8671C7.47739 12.5866 8.8191 14.2498 9 14.4753C9.1809 14.7149 11.6382 18.2386 15.3769 19.7467C16.2663 20.1132 16.9598 20.3246 17.5025 20.4797C18.392 20.7475 19.206 20.7052 19.8543 20.6206C20.5779 20.5219 22.0703 19.7749 22.3719 18.9574C22.6884 18.1399 22.6884 17.4493 22.5829 17.2943C22.4774 17.1392 22.2513 17.0688 21.8744 16.8996Z" fill="white"/>
</svg>
