<svg width="30" height="21" viewBox="0 0 30 21" fill="none" xmlns="http://www.w3.org/2000/svg">
<path d="M27.8571 0H2.14286C1.57454 0 1.02949 0.212139 0.627628 0.58975C0.225765 0.967361 0 1.47951 0 2.01353V18.1218C0 18.6558 0.225765 19.168 0.627628 19.5456C1.02949 19.9232 1.57454 20.1353 2.14286 20.1353H27.8571C28.4255 20.1353 28.9705 19.9232 29.3724 19.5456C29.7742 19.168 30 18.6558 30 18.1218V2.01353C30 1.47951 29.7742 0.967361 29.3724 0.58975C28.9705 0.212139 28.4255 0 27.8571 0ZM25.5 2.01353L15 8.83941L4.5 2.01353H25.5ZM2.14286 18.1218V2.92969L14.3893 10.8932C14.5686 11.0101 14.7817 11.0728 15 11.0728C15.2183 11.0728 15.4314 11.0101 15.6107 10.8932L27.8571 2.92969V18.1218H2.14286Z" fill="white"/>
</svg>
