<svg width="15" height="16" viewBox="0 0 15 16" fill="none" xmlns="http://www.w3.org/2000/svg">
<path d="M5.01714 12.0182C5.01714 12.0786 4.94758 12.127 4.85988 12.127C4.76008 12.1361 4.69052 12.0877 4.69052 12.0182C4.69052 11.9577 4.76008 11.9093 4.84778 11.9093C4.93851 11.9002 5.01714 11.9486 5.01714 12.0182ZM4.07661 11.8821C4.05544 11.9425 4.11593 12.0121 4.20665 12.0302C4.28528 12.0605 4.37601 12.0302 4.39415 11.9698C4.4123 11.9093 4.35484 11.8397 4.26411 11.8125C4.18548 11.7913 4.09778 11.8216 4.07661 11.8821ZM5.41331 11.8307C5.3256 11.8518 5.26512 11.9093 5.27419 11.9788C5.28327 12.0393 5.3619 12.0786 5.45262 12.0575C5.54032 12.0363 5.60081 11.9788 5.59173 11.9184C5.58266 11.8609 5.50101 11.8216 5.41331 11.8307ZM7.40323 0.241943C3.20867 0.241943 0 3.42642 0 7.62098C0 10.9748 2.11089 13.8448 5.12601 14.8548C5.5131 14.9244 5.64919 14.6855 5.64919 14.4889C5.64919 14.3014 5.64012 13.2671 5.64012 12.6321C5.64012 12.6321 3.52319 13.0857 3.07863 11.7309C3.07863 11.7309 2.73387 10.8508 2.2379 10.624C2.2379 10.624 1.54536 10.1492 2.28629 10.1583C2.28629 10.1583 3.03931 10.2188 3.45363 10.9385C4.11593 12.1059 5.22581 11.7702 5.65827 11.5706C5.72782 11.0867 5.9244 10.751 6.14214 10.5514C4.45161 10.3639 2.74597 10.119 2.74597 7.20968C2.74597 6.37803 2.97581 5.96069 3.45968 5.42844C3.38105 5.23186 3.12399 4.42138 3.53831 3.37501C4.17036 3.17844 5.625 4.19154 5.625 4.19154C6.22984 4.02219 6.88004 3.93448 7.52419 3.93448C8.16835 3.93448 8.81855 4.02219 9.42339 4.19154C9.42339 4.19154 10.878 3.17541 11.5101 3.37501C11.9244 4.4244 11.6673 5.23186 11.5887 5.42844C12.0726 5.96372 12.369 6.38106 12.369 7.20968C12.369 10.128 10.5877 10.3609 8.89718 10.5514C9.1754 10.7903 9.41129 11.244 9.41129 11.9546C9.41129 12.9738 9.40222 14.2349 9.40222 14.4829C9.40222 14.6794 9.54133 14.9184 9.9254 14.8488C12.9496 13.8448 15 10.9748 15 7.62098C15 3.42642 11.5978 0.241943 7.40323 0.241943ZM2.93952 10.6724C2.9002 10.7026 2.90927 10.7722 2.96069 10.8296C3.00907 10.878 3.07863 10.8992 3.11794 10.8599C3.15726 10.8296 3.14819 10.7601 3.09677 10.7026C3.04839 10.6542 2.97883 10.6331 2.93952 10.6724ZM2.6129 10.4274C2.59173 10.4667 2.62198 10.5151 2.68246 10.5454C2.73085 10.5756 2.79133 10.5665 2.8125 10.5242C2.83367 10.4849 2.80343 10.4365 2.74294 10.4063C2.68246 10.3881 2.63407 10.3972 2.6129 10.4274ZM3.59274 11.504C3.54435 11.5434 3.5625 11.6341 3.63206 11.6915C3.70161 11.7611 3.78931 11.7702 3.82863 11.7218C3.86794 11.6825 3.8498 11.5917 3.78931 11.5343C3.72278 11.4647 3.63206 11.4557 3.59274 11.504ZM3.24798 11.0595C3.1996 11.0897 3.1996 11.1684 3.24798 11.2379C3.29637 11.3075 3.37802 11.3377 3.41734 11.3075C3.46573 11.2682 3.46573 11.1895 3.41734 11.12C3.375 11.0504 3.29637 11.0202 3.24798 11.0595Z" fill="white"/>
</svg>
