<svg width="30" height="29" viewBox="0 0 30 29" fill="none" xmlns="http://www.w3.org/2000/svg">
<path d="M27.6146 0.000197085H2.20497C1.91934 -0.00353039 1.63573 0.0456484 1.37033 0.144925C1.10493 0.244202 0.862943 0.391631 0.658187 0.578795C0.453431 0.765958 0.289918 0.989188 0.176985 1.23574C0.0640527 1.48229 0.00391254 1.74732 0 2.01572V26.1737C0.00391254 26.4421 0.0640527 26.7072 0.176985 26.9537C0.289918 27.2003 0.453431 27.4235 0.658187 27.6107C0.862943 27.7978 1.10493 27.9453 1.37033 28.0445C1.63573 28.1438 1.91934 28.193 2.20497 28.1893H27.6146C27.9002 28.193 28.1839 28.1438 28.4493 28.0445C28.7147 27.9453 28.9566 27.7978 29.1614 27.6107C29.3662 27.4235 29.5297 27.2003 29.6426 26.9537C29.7555 26.7072 29.8157 26.4421 29.8196 26.1737V2.01572C29.8157 1.74732 29.7555 1.48229 29.6426 1.23574C29.5297 0.989188 29.3662 0.765958 29.1614 0.578795C28.9566 0.391631 28.7147 0.244202 28.4493 0.144925C28.1839 0.0456484 27.9002 -0.00353039 27.6146 0.000197085ZM9.04487 23.5944H4.54494V10.9094H9.04487V23.5944ZM6.79491 9.13345C6.17431 9.13345 5.57913 8.9018 5.1403 8.48946C4.70147 8.07711 4.45494 7.51785 4.45494 6.93471C4.45494 6.35156 4.70147 5.7923 5.1403 5.37996C5.57913 4.96761 6.17431 4.73596 6.79491 4.73596C7.12444 4.70084 7.45816 4.73153 7.7742 4.826C8.09025 4.92048 8.38149 5.07661 8.62886 5.28418C8.87624 5.49176 9.07416 5.74609 9.20968 6.03052C9.34519 6.31495 9.41525 6.62307 9.41525 6.93471C9.41525 7.24634 9.34519 7.55446 9.20968 7.8389C9.07416 8.12333 8.87624 8.37766 8.62886 8.58523C8.38149 8.79281 8.09025 8.94894 7.7742 9.04342C7.45816 9.13789 7.12444 9.16857 6.79491 9.13345ZM25.2746 23.5944H20.7747V16.7868C20.7747 15.0813 20.1297 13.9679 18.4947 13.9679C17.9887 13.9714 17.496 14.1205 17.083 14.3952C16.67 14.6699 16.3565 15.0569 16.1848 15.5042C16.0674 15.8355 16.0165 16.1843 16.0348 16.5331V23.5804H11.5348V10.8953H16.0348V12.6853C16.4436 12.0188 17.0381 11.4697 17.7544 11.0971C18.4707 10.7246 19.2816 10.5427 20.0997 10.5711C23.0997 10.5711 25.2746 12.3893 25.2746 16.2935V23.5944Z" fill="white"/>
</svg>
