<svg width="312" height="267" viewBox="0 0 312 267" fill="none" xmlns="http://www.w3.org/2000/svg">
<path d="M8.32797 31.904C8.67997 31.936 9.07997 31.968 9.52797 32C10.008 32 10.568 32 11.208 32C14.952 32 17.72 31.056 19.512 29.168C21.336 27.28 22.248 24.672 22.248 21.344C22.248 17.856 21.384 15.216 19.656 13.424C17.928 11.632 15.192 10.736 11.448 10.736C10.936 10.736 10.408 10.752 9.86397 10.784C9.31997 10.784 8.80797 10.816 8.32797 10.88V31.904ZM29.976 21.344C29.976 24.224 29.528 26.736 28.632 28.88C27.736 31.024 26.456 32.8 24.792 34.208C23.16 35.616 21.16 36.672 18.792 37.376C16.424 38.08 13.768 38.432 10.824 38.432C9.47997 38.432 7.91197 38.368 6.11997 38.24C4.32797 38.144 2.56797 37.92 0.839966 37.568V5.16801C2.56797 4.84801 4.35997 4.64001 6.21597 4.54401C8.10397 4.41601 9.71997 4.35201 11.064 4.35201C13.912 4.35201 16.488 4.67201 18.792 5.31201C21.128 5.95201 23.128 6.96001 24.792 8.33601C26.456 9.71201 27.736 11.472 28.632 13.616C29.528 15.76 29.976 18.336 29.976 21.344Z" fill="white" fill-opacity="0.2"/>
<path d="M42.9026 38H35.7506V12.752H42.9026V38ZM43.5746 5.45601C43.5746 6.76801 43.1426 7.80801 42.2786 8.57601C41.4466 9.31201 40.4546 9.68001 39.3026 9.68001C38.1506 9.68001 37.1426 9.31201 36.2786 8.57601C35.4466 7.80801 35.0306 6.76801 35.0306 5.45601C35.0306 4.14401 35.4466 3.12001 36.2786 2.38401C37.1426 1.61601 38.1506 1.23201 39.3026 1.23201C40.4546 1.23201 41.4466 1.61601 42.2786 2.38401C43.1426 3.12001 43.5746 4.14401 43.5746 5.45601Z" fill="white" fill-opacity="0.2"/>
<path d="M49.3856 6.46402L56.5376 5.31201V12.752H65.1296V18.704H56.5376V27.584C56.5376 29.088 56.7936 30.288 57.3056 31.184C57.8496 32.08 58.9216 32.528 60.5216 32.528C61.2896 32.528 62.0736 32.464 62.8736 32.336C63.7056 32.176 64.4576 31.968 65.1296 31.712L66.1376 37.28C65.2736 37.632 64.3136 37.936 63.2576 38.192C62.2016 38.448 60.9056 38.576 59.3696 38.576C57.4176 38.576 55.8016 38.32 54.5216 37.808C53.2416 37.264 52.2176 36.528 51.4496 35.6C50.6816 34.64 50.1376 33.488 49.8176 32.144C49.5296 30.8 49.3856 29.312 49.3856 27.68V6.46402Z" fill="white" fill-opacity="0.2"/>
<path d="M70.9537 38V1.90401L78.1057 0.752014V12.848C78.5857 12.688 79.1937 12.544 79.9297 12.416C80.6977 12.256 81.4337 12.176 82.1377 12.176C84.1857 12.176 85.8817 12.464 87.2257 13.04C88.6017 13.584 89.6897 14.368 90.4897 15.392C91.3217 16.416 91.8977 17.632 92.2177 19.04C92.5697 20.448 92.7457 22.016 92.7457 23.744V38H85.5937V24.608C85.5937 22.304 85.2897 20.672 84.6817 19.712C84.1057 18.752 83.0177 18.272 81.4177 18.272C80.7777 18.272 80.1697 18.336 79.5937 18.464C79.0497 18.56 78.5537 18.672 78.1057 18.8V38H70.9537Z" fill="white" fill-opacity="0.2"/>
<path d="M108.867 33.008C109.571 33.008 110.243 32.992 110.883 32.96C111.523 32.928 112.035 32.88 112.419 32.816V27.392C112.131 27.328 111.699 27.264 111.123 27.2C110.547 27.136 110.019 27.104 109.539 27.104C108.867 27.104 108.227 27.152 107.619 27.248C107.043 27.312 106.531 27.456 106.083 27.68C105.635 27.904 105.283 28.208 105.027 28.592C104.771 28.976 104.643 29.456 104.643 30.032C104.643 31.152 105.011 31.936 105.747 32.384C106.515 32.8 107.555 33.008 108.867 33.008ZM108.291 12.08C110.403 12.08 112.163 12.32 113.571 12.8C114.979 13.28 116.099 13.968 116.931 14.864C117.795 15.76 118.403 16.848 118.755 18.128C119.107 19.408 119.283 20.832 119.283 22.4V37.28C118.259 37.504 116.835 37.76 115.011 38.048C113.187 38.368 110.979 38.528 108.387 38.528C106.755 38.528 105.267 38.384 103.923 38.096C102.611 37.808 101.475 37.344 100.515 36.704C99.5553 36.032 98.8193 35.168 98.3073 34.112C97.7953 33.056 97.5393 31.76 97.5393 30.224C97.5393 28.752 97.8273 27.504 98.4033 26.48C99.0113 25.456 99.8113 24.64 100.803 24.032C101.795 23.424 102.931 22.992 104.211 22.736C105.491 22.448 106.819 22.304 108.195 22.304C109.123 22.304 109.939 22.352 110.643 22.448C111.379 22.512 111.971 22.608 112.419 22.736V22.064C112.419 20.848 112.051 19.872 111.315 19.136C110.579 18.4 109.299 18.032 107.475 18.032C106.259 18.032 105.059 18.128 103.875 18.32C102.691 18.48 101.667 18.72 100.803 19.04L99.8913 13.28C100.307 13.152 100.819 13.024 101.427 12.896C102.067 12.736 102.755 12.608 103.491 12.512C104.227 12.384 104.995 12.288 105.795 12.224C106.627 12.128 107.459 12.08 108.291 12.08Z" fill="white" fill-opacity="0.2"/>
<path d="M125.751 13.616C126.967 13.264 128.535 12.944 130.455 12.656C132.375 12.336 134.391 12.176 136.503 12.176C138.647 12.176 140.423 12.464 141.831 13.04C143.271 13.584 144.407 14.368 145.239 15.392C146.071 16.416 146.663 17.632 147.015 19.04C147.367 20.448 147.543 22.016 147.543 23.744V38H140.391V24.608C140.391 22.304 140.087 20.672 139.479 19.712C138.871 18.752 137.735 18.272 136.071 18.272C135.559 18.272 135.015 18.304 134.439 18.368C133.863 18.4 133.351 18.448 132.903 18.512V38H125.751V13.616Z" fill="white" fill-opacity="0.2"/>
<path d="M89.328 89.904C89.68 89.936 90.08 89.968 90.528 90C91.008 90 91.568 90 92.208 90C95.952 90 98.72 89.056 100.512 87.168C102.336 85.28 103.248 82.672 103.248 79.344C103.248 75.856 102.384 73.216 100.656 71.424C98.928 69.632 96.192 68.736 92.448 68.736C91.936 68.736 91.408 68.752 90.864 68.784C90.32 68.784 89.808 68.816 89.328 68.88V89.904ZM110.976 79.344C110.976 82.224 110.528 84.736 109.632 86.88C108.736 89.024 107.456 90.8 105.792 92.208C104.16 93.616 102.16 94.672 99.792 95.376C97.424 96.08 94.768 96.432 91.824 96.432C90.48 96.432 88.912 96.368 87.12 96.24C85.328 96.144 83.568 95.92 81.84 95.568V63.168C83.568 62.848 85.36 62.64 87.216 62.544C89.104 62.416 90.72 62.352 92.064 62.352C94.912 62.352 97.488 62.672 99.792 63.312C102.128 63.952 104.128 64.96 105.792 66.336C107.456 67.712 108.736 69.472 109.632 71.616C110.528 73.76 110.976 76.336 110.976 79.344Z" fill="white" fill-opacity="0.2"/>
<path d="M123.903 96H116.751V70.752H123.903V96ZM124.575 63.456C124.575 64.768 124.143 65.808 123.279 66.576C122.447 67.312 121.455 67.68 120.303 67.68C119.151 67.68 118.143 67.312 117.279 66.576C116.447 65.808 116.031 64.768 116.031 63.456C116.031 62.144 116.447 61.12 117.279 60.384C118.143 59.616 119.151 59.232 120.303 59.232C121.455 59.232 122.447 59.616 123.279 60.384C124.143 61.12 124.575 62.144 124.575 63.456Z" fill="white" fill-opacity="0.2"/>
<path d="M130.386 64.464L137.538 63.312V70.752H146.13V76.704H137.538V85.584C137.538 87.088 137.794 88.288 138.306 89.184C138.85 90.08 139.922 90.528 141.522 90.528C142.29 90.528 143.074 90.464 143.874 90.336C144.706 90.176 145.458 89.968 146.13 89.712L147.138 95.28C146.274 95.632 145.314 95.936 144.258 96.192C143.202 96.448 141.906 96.576 140.37 96.576C138.418 96.576 136.802 96.32 135.522 95.808C134.242 95.264 133.218 94.528 132.45 93.6C131.682 92.64 131.138 91.488 130.818 90.144C130.53 88.8 130.386 87.312 130.386 85.68V64.464Z" fill="white" fill-opacity="0.2"/>
<path d="M151.954 96V59.904L159.106 58.752V70.848C159.586 70.688 160.194 70.544 160.93 70.416C161.698 70.256 162.434 70.176 163.138 70.176C165.186 70.176 166.882 70.464 168.226 71.04C169.602 71.584 170.69 72.368 171.49 73.392C172.322 74.416 172.898 75.632 173.218 77.04C173.57 78.448 173.746 80.016 173.746 81.744V96H166.594V82.608C166.594 80.304 166.29 78.672 165.682 77.712C165.106 76.752 164.018 76.272 162.418 76.272C161.778 76.272 161.17 76.336 160.594 76.464C160.05 76.56 159.554 76.672 159.106 76.8V96H151.954Z" fill="white" fill-opacity="0.2"/>
<path d="M189.867 91.008C190.571 91.008 191.243 90.992 191.883 90.96C192.523 90.928 193.035 90.88 193.419 90.816V85.392C193.131 85.328 192.699 85.264 192.123 85.2C191.547 85.136 191.019 85.104 190.539 85.104C189.867 85.104 189.227 85.152 188.619 85.248C188.043 85.312 187.531 85.456 187.083 85.68C186.635 85.904 186.283 86.208 186.027 86.592C185.771 86.976 185.643 87.456 185.643 88.032C185.643 89.152 186.011 89.936 186.747 90.384C187.515 90.8 188.555 91.008 189.867 91.008ZM189.291 70.08C191.403 70.08 193.163 70.32 194.571 70.8C195.979 71.28 197.099 71.968 197.931 72.864C198.795 73.76 199.403 74.848 199.755 76.128C200.107 77.408 200.283 78.832 200.283 80.4V95.28C199.259 95.504 197.835 95.76 196.011 96.048C194.187 96.368 191.979 96.528 189.387 96.528C187.755 96.528 186.267 96.384 184.923 96.096C183.611 95.808 182.475 95.344 181.515 94.704C180.555 94.032 179.819 93.168 179.307 92.112C178.795 91.056 178.539 89.76 178.539 88.224C178.539 86.752 178.827 85.504 179.403 84.48C180.011 83.456 180.811 82.64 181.803 82.032C182.795 81.424 183.931 80.992 185.211 80.736C186.491 80.448 187.819 80.304 189.195 80.304C190.123 80.304 190.939 80.352 191.643 80.448C192.379 80.512 192.971 80.608 193.419 80.736V80.064C193.419 78.848 193.051 77.872 192.315 77.136C191.579 76.4 190.299 76.032 188.475 76.032C187.259 76.032 186.059 76.128 184.875 76.32C183.691 76.48 182.667 76.72 181.803 77.04L180.891 71.28C181.307 71.152 181.819 71.024 182.427 70.896C183.067 70.736 183.755 70.608 184.491 70.512C185.227 70.384 185.995 70.288 186.795 70.224C187.627 70.128 188.459 70.08 189.291 70.08Z" fill="white" fill-opacity="0.2"/>
<path d="M206.751 71.616C207.967 71.264 209.535 70.944 211.455 70.656C213.375 70.336 215.391 70.176 217.503 70.176C219.647 70.176 221.423 70.464 222.831 71.04C224.271 71.584 225.407 72.368 226.239 73.392C227.071 74.416 227.663 75.632 228.015 77.04C228.367 78.448 228.543 80.016 228.543 81.744V96H221.391V82.608C221.391 80.304 221.087 78.672 220.479 77.712C219.871 76.752 218.735 76.272 217.071 76.272C216.559 76.272 216.015 76.304 215.439 76.368C214.863 76.4 214.351 76.448 213.903 76.512V96H206.751V71.616Z" fill="white" fill-opacity="0.2"/>
<path d="M8.32797 147.904C8.67997 147.936 9.07997 147.968 9.52797 148C10.008 148 10.568 148 11.208 148C14.952 148 17.72 147.056 19.512 145.168C21.336 143.28 22.248 140.672 22.248 137.344C22.248 133.856 21.384 131.216 19.656 129.424C17.928 127.632 15.192 126.736 11.448 126.736C10.936 126.736 10.408 126.752 9.86397 126.784C9.31997 126.784 8.80797 126.816 8.32797 126.88V147.904ZM29.976 137.344C29.976 140.224 29.528 142.736 28.632 144.88C27.736 147.024 26.456 148.8 24.792 150.208C23.16 151.616 21.16 152.672 18.792 153.376C16.424 154.08 13.768 154.432 10.824 154.432C9.47997 154.432 7.91197 154.368 6.11997 154.24C4.32797 154.144 2.56797 153.92 0.839966 153.568V121.168C2.56797 120.848 4.35997 120.64 6.21597 120.544C8.10397 120.416 9.71997 120.352 11.064 120.352C13.912 120.352 16.488 120.672 18.792 121.312C21.128 121.952 23.128 122.96 24.792 124.336C26.456 125.712 27.736 127.472 28.632 129.616C29.528 131.76 29.976 134.336 29.976 137.344Z" fill="white" fill-opacity="0.2"/>
<path d="M42.9026 154H35.7506V128.752H42.9026V154ZM43.5746 121.456C43.5746 122.768 43.1426 123.808 42.2786 124.576C41.4466 125.312 40.4546 125.68 39.3026 125.68C38.1506 125.68 37.1426 125.312 36.2786 124.576C35.4466 123.808 35.0306 122.768 35.0306 121.456C35.0306 120.144 35.4466 119.12 36.2786 118.384C37.1426 117.616 38.1506 117.232 39.3026 117.232C40.4546 117.232 41.4466 117.616 42.2786 118.384C43.1426 119.12 43.5746 120.144 43.5746 121.456Z" fill="white" fill-opacity="0.2"/>
<path d="M49.3856 122.464L56.5376 121.312V128.752H65.1296V134.704H56.5376V143.584C56.5376 145.088 56.7936 146.288 57.3056 147.184C57.8496 148.08 58.9216 148.528 60.5216 148.528C61.2896 148.528 62.0736 148.464 62.8736 148.336C63.7056 148.176 64.4576 147.968 65.1296 147.712L66.1376 153.28C65.2736 153.632 64.3136 153.936 63.2576 154.192C62.2016 154.448 60.9056 154.576 59.3696 154.576C57.4176 154.576 55.8016 154.32 54.5216 153.808C53.2416 153.264 52.2176 152.528 51.4496 151.6C50.6816 150.64 50.1376 149.488 49.8176 148.144C49.5296 146.8 49.3856 145.312 49.3856 143.68V122.464Z" fill="white" fill-opacity="0.2"/>
<path d="M70.9537 154V117.904L78.1057 116.752V128.848C78.5857 128.688 79.1937 128.544 79.9297 128.416C80.6977 128.256 81.4337 128.176 82.1377 128.176C84.1857 128.176 85.8817 128.464 87.2257 129.04C88.6017 129.584 89.6897 130.368 90.4897 131.392C91.3217 132.416 91.8977 133.632 92.2177 135.04C92.5697 136.448 92.7457 138.016 92.7457 139.744V154H85.5937V140.608C85.5937 138.304 85.2897 136.672 84.6817 135.712C84.1057 134.752 83.0177 134.272 81.4177 134.272C80.7777 134.272 80.1697 134.336 79.5937 134.464C79.0497 134.56 78.5537 134.672 78.1057 134.8V154H70.9537Z" fill="white" fill-opacity="0.2"/>
<path d="M108.867 149.008C109.571 149.008 110.243 148.992 110.883 148.96C111.523 148.928 112.035 148.88 112.419 148.816V143.392C112.131 143.328 111.699 143.264 111.123 143.2C110.547 143.136 110.019 143.104 109.539 143.104C108.867 143.104 108.227 143.152 107.619 143.248C107.043 143.312 106.531 143.456 106.083 143.68C105.635 143.904 105.283 144.208 105.027 144.592C104.771 144.976 104.643 145.456 104.643 146.032C104.643 147.152 105.011 147.936 105.747 148.384C106.515 148.8 107.555 149.008 108.867 149.008ZM108.291 128.08C110.403 128.08 112.163 128.32 113.571 128.8C114.979 129.28 116.099 129.968 116.931 130.864C117.795 131.76 118.403 132.848 118.755 134.128C119.107 135.408 119.283 136.832 119.283 138.4V153.28C118.259 153.504 116.835 153.76 115.011 154.048C113.187 154.368 110.979 154.528 108.387 154.528C106.755 154.528 105.267 154.384 103.923 154.096C102.611 153.808 101.475 153.344 100.515 152.704C99.5553 152.032 98.8193 151.168 98.3073 150.112C97.7953 149.056 97.5393 147.76 97.5393 146.224C97.5393 144.752 97.8273 143.504 98.4033 142.48C99.0113 141.456 99.8113 140.64 100.803 140.032C101.795 139.424 102.931 138.992 104.211 138.736C105.491 138.448 106.819 138.304 108.195 138.304C109.123 138.304 109.939 138.352 110.643 138.448C111.379 138.512 111.971 138.608 112.419 138.736V138.064C112.419 136.848 112.051 135.872 111.315 135.136C110.579 134.4 109.299 134.032 107.475 134.032C106.259 134.032 105.059 134.128 103.875 134.32C102.691 134.48 101.667 134.72 100.803 135.04L99.8913 129.28C100.307 129.152 100.819 129.024 101.427 128.896C102.067 128.736 102.755 128.608 103.491 128.512C104.227 128.384 104.995 128.288 105.795 128.224C106.627 128.128 107.459 128.08 108.291 128.08Z" fill="white" fill-opacity="0.2"/>
<path d="M125.751 129.616C126.967 129.264 128.535 128.944 130.455 128.656C132.375 128.336 134.391 128.176 136.503 128.176C138.647 128.176 140.423 128.464 141.831 129.04C143.271 129.584 144.407 130.368 145.239 131.392C146.071 132.416 146.663 133.632 147.015 135.04C147.367 136.448 147.543 138.016 147.543 139.744V154H140.391V140.608C140.391 138.304 140.087 136.672 139.479 135.712C138.871 134.752 137.735 134.272 136.071 134.272C135.559 134.272 135.015 134.304 134.439 134.368C133.863 134.4 133.351 134.448 132.903 134.512V154H125.751V129.616Z" fill="white" fill-opacity="0.2"/>
<path d="M8.32797 259.904C8.67997 259.936 9.07997 259.968 9.52797 260C10.008 260 10.568 260 11.208 260C14.952 260 17.72 259.056 19.512 257.168C21.336 255.28 22.248 252.672 22.248 249.344C22.248 245.856 21.384 243.216 19.656 241.424C17.928 239.632 15.192 238.736 11.448 238.736C10.936 238.736 10.408 238.752 9.86397 238.784C9.31997 238.784 8.80797 238.816 8.32797 238.88V259.904ZM29.976 249.344C29.976 252.224 29.528 254.736 28.632 256.88C27.736 259.024 26.456 260.8 24.792 262.208C23.16 263.616 21.16 264.672 18.792 265.376C16.424 266.08 13.768 266.432 10.824 266.432C9.47997 266.432 7.91197 266.368 6.11997 266.24C4.32797 266.144 2.56797 265.92 0.839966 265.568V233.168C2.56797 232.848 4.35997 232.64 6.21597 232.544C8.10397 232.416 9.71997 232.352 11.064 232.352C13.912 232.352 16.488 232.672 18.792 233.312C21.128 233.952 23.128 234.96 24.792 236.336C26.456 237.712 27.736 239.472 28.632 241.616C29.528 243.76 29.976 246.336 29.976 249.344Z" fill="white" fill-opacity="0.2"/>
<path d="M42.9026 266H35.7506V240.752H42.9026V266ZM43.5746 233.456C43.5746 234.768 43.1426 235.808 42.2786 236.576C41.4466 237.312 40.4546 237.68 39.3026 237.68C38.1506 237.68 37.1426 237.312 36.2786 236.576C35.4466 235.808 35.0306 234.768 35.0306 233.456C35.0306 232.144 35.4466 231.12 36.2786 230.384C37.1426 229.616 38.1506 229.232 39.3026 229.232C40.4546 229.232 41.4466 229.616 42.2786 230.384C43.1426 231.12 43.5746 232.144 43.5746 233.456Z" fill="white" fill-opacity="0.2"/>
<path d="M49.3856 234.464L56.5376 233.312V240.752H65.1296V246.704H56.5376V255.584C56.5376 257.088 56.7936 258.288 57.3056 259.184C57.8496 260.08 58.9216 260.528 60.5216 260.528C61.2896 260.528 62.0736 260.464 62.8736 260.336C63.7056 260.176 64.4576 259.968 65.1296 259.712L66.1376 265.28C65.2736 265.632 64.3136 265.936 63.2576 266.192C62.2016 266.448 60.9056 266.576 59.3696 266.576C57.4176 266.576 55.8016 266.32 54.5216 265.808C53.2416 265.264 52.2176 264.528 51.4496 263.6C50.6816 262.64 50.1376 261.488 49.8176 260.144C49.5296 258.8 49.3856 257.312 49.3856 255.68V234.464Z" fill="white" fill-opacity="0.2"/>
<path d="M70.9537 266V229.904L78.1057 228.752V240.848C78.5857 240.688 79.1937 240.544 79.9297 240.416C80.6977 240.256 81.4337 240.176 82.1377 240.176C84.1857 240.176 85.8817 240.464 87.2257 241.04C88.6017 241.584 89.6897 242.368 90.4897 243.392C91.3217 244.416 91.8977 245.632 92.2177 247.04C92.5697 248.448 92.7457 250.016 92.7457 251.744V266H85.5937V252.608C85.5937 250.304 85.2897 248.672 84.6817 247.712C84.1057 246.752 83.0177 246.272 81.4177 246.272C80.7777 246.272 80.1697 246.336 79.5937 246.464C79.0497 246.56 78.5537 246.672 78.1057 246.8V266H70.9537Z" fill="white" fill-opacity="0.2"/>
<path d="M108.867 261.008C109.571 261.008 110.243 260.992 110.883 260.96C111.523 260.928 112.035 260.88 112.419 260.816V255.392C112.131 255.328 111.699 255.264 111.123 255.2C110.547 255.136 110.019 255.104 109.539 255.104C108.867 255.104 108.227 255.152 107.619 255.248C107.043 255.312 106.531 255.456 106.083 255.68C105.635 255.904 105.283 256.208 105.027 256.592C104.771 256.976 104.643 257.456 104.643 258.032C104.643 259.152 105.011 259.936 105.747 260.384C106.515 260.8 107.555 261.008 108.867 261.008ZM108.291 240.08C110.403 240.08 112.163 240.32 113.571 240.8C114.979 241.28 116.099 241.968 116.931 242.864C117.795 243.76 118.403 244.848 118.755 246.128C119.107 247.408 119.283 248.832 119.283 250.4V265.28C118.259 265.504 116.835 265.76 115.011 266.048C113.187 266.368 110.979 266.528 108.387 266.528C106.755 266.528 105.267 266.384 103.923 266.096C102.611 265.808 101.475 265.344 100.515 264.704C99.5553 264.032 98.8193 263.168 98.3073 262.112C97.7953 261.056 97.5393 259.76 97.5393 258.224C97.5393 256.752 97.8273 255.504 98.4033 254.48C99.0113 253.456 99.8113 252.64 100.803 252.032C101.795 251.424 102.931 250.992 104.211 250.736C105.491 250.448 106.819 250.304 108.195 250.304C109.123 250.304 109.939 250.352 110.643 250.448C111.379 250.512 111.971 250.608 112.419 250.736V250.064C112.419 248.848 112.051 247.872 111.315 247.136C110.579 246.4 109.299 246.032 107.475 246.032C106.259 246.032 105.059 246.128 103.875 246.32C102.691 246.48 101.667 246.72 100.803 247.04L99.8913 241.28C100.307 241.152 100.819 241.024 101.427 240.896C102.067 240.736 102.755 240.608 103.491 240.512C104.227 240.384 104.995 240.288 105.795 240.224C106.627 240.128 107.459 240.08 108.291 240.08Z" fill="white" fill-opacity="0.2"/>
<path d="M125.751 241.616C126.967 241.264 128.535 240.944 130.455 240.656C132.375 240.336 134.391 240.176 136.503 240.176C138.647 240.176 140.423 240.464 141.831 241.04C143.271 241.584 144.407 242.368 145.239 243.392C146.071 244.416 146.663 245.632 147.015 247.04C147.367 248.448 147.543 250.016 147.543 251.744V266H140.391V252.608C140.391 250.304 140.087 248.672 139.479 247.712C138.871 246.752 137.735 246.272 136.071 246.272C135.559 246.272 135.015 246.304 134.439 246.368C133.863 246.4 133.351 246.448 132.903 246.512V266H125.751V241.616Z" fill="white" fill-opacity="0.2"/>
<path d="M172.328 147.904C172.68 147.936 173.08 147.968 173.528 148C174.008 148 174.568 148 175.208 148C178.952 148 181.72 147.056 183.512 145.168C185.336 143.28 186.248 140.672 186.248 137.344C186.248 133.856 185.384 131.216 183.656 129.424C181.928 127.632 179.192 126.736 175.448 126.736C174.936 126.736 174.408 126.752 173.864 126.784C173.32 126.784 172.808 126.816 172.328 126.88V147.904ZM193.976 137.344C193.976 140.224 193.528 142.736 192.632 144.88C191.736 147.024 190.456 148.8 188.792 150.208C187.16 151.616 185.16 152.672 182.792 153.376C180.424 154.08 177.768 154.432 174.824 154.432C173.48 154.432 171.912 154.368 170.12 154.24C168.328 154.144 166.568 153.92 164.84 153.568V121.168C166.568 120.848 168.36 120.64 170.216 120.544C172.104 120.416 173.72 120.352 175.064 120.352C177.912 120.352 180.488 120.672 182.792 121.312C185.128 121.952 187.128 122.96 188.792 124.336C190.456 125.712 191.736 127.472 192.632 129.616C193.528 131.76 193.976 134.336 193.976 137.344Z" fill="white" fill-opacity="0.2"/>
<path d="M206.903 154H199.751V128.752H206.903V154ZM207.575 121.456C207.575 122.768 207.143 123.808 206.279 124.576C205.447 125.312 204.455 125.68 203.303 125.68C202.151 125.68 201.143 125.312 200.279 124.576C199.447 123.808 199.031 122.768 199.031 121.456C199.031 120.144 199.447 119.12 200.279 118.384C201.143 117.616 202.151 117.232 203.303 117.232C204.455 117.232 205.447 117.616 206.279 118.384C207.143 119.12 207.575 120.144 207.575 121.456Z" fill="white" fill-opacity="0.2"/>
<path d="M213.386 122.464L220.538 121.312V128.752H229.13V134.704H220.538V143.584C220.538 145.088 220.794 146.288 221.306 147.184C221.85 148.08 222.922 148.528 224.522 148.528C225.29 148.528 226.074 148.464 226.874 148.336C227.706 148.176 228.458 147.968 229.13 147.712L230.138 153.28C229.274 153.632 228.314 153.936 227.258 154.192C226.202 154.448 224.906 154.576 223.37 154.576C221.418 154.576 219.802 154.32 218.522 153.808C217.242 153.264 216.218 152.528 215.45 151.6C214.682 150.64 214.138 149.488 213.818 148.144C213.53 146.8 213.386 145.312 213.386 143.68V122.464Z" fill="white" fill-opacity="0.2"/>
<path d="M234.954 154V117.904L242.106 116.752V128.848C242.586 128.688 243.194 128.544 243.93 128.416C244.698 128.256 245.434 128.176 246.138 128.176C248.186 128.176 249.882 128.464 251.226 129.04C252.602 129.584 253.69 130.368 254.49 131.392C255.322 132.416 255.898 133.632 256.218 135.04C256.57 136.448 256.746 138.016 256.746 139.744V154H249.594V140.608C249.594 138.304 249.29 136.672 248.682 135.712C248.106 134.752 247.018 134.272 245.418 134.272C244.778 134.272 244.17 134.336 243.594 134.464C243.05 134.56 242.554 134.672 242.106 134.8V154H234.954Z" fill="white" fill-opacity="0.2"/>
<path d="M272.867 149.008C273.571 149.008 274.243 148.992 274.883 148.96C275.523 148.928 276.035 148.88 276.419 148.816V143.392C276.131 143.328 275.699 143.264 275.123 143.2C274.547 143.136 274.019 143.104 273.539 143.104C272.867 143.104 272.227 143.152 271.619 143.248C271.043 143.312 270.531 143.456 270.083 143.68C269.635 143.904 269.283 144.208 269.027 144.592C268.771 144.976 268.643 145.456 268.643 146.032C268.643 147.152 269.011 147.936 269.747 148.384C270.515 148.8 271.555 149.008 272.867 149.008ZM272.291 128.08C274.403 128.08 276.163 128.32 277.571 128.8C278.979 129.28 280.099 129.968 280.931 130.864C281.795 131.76 282.403 132.848 282.755 134.128C283.107 135.408 283.283 136.832 283.283 138.4V153.28C282.259 153.504 280.835 153.76 279.011 154.048C277.187 154.368 274.979 154.528 272.387 154.528C270.755 154.528 269.267 154.384 267.923 154.096C266.611 153.808 265.475 153.344 264.515 152.704C263.555 152.032 262.819 151.168 262.307 150.112C261.795 149.056 261.539 147.76 261.539 146.224C261.539 144.752 261.827 143.504 262.403 142.48C263.011 141.456 263.811 140.64 264.803 140.032C265.795 139.424 266.931 138.992 268.211 138.736C269.491 138.448 270.819 138.304 272.195 138.304C273.123 138.304 273.939 138.352 274.643 138.448C275.379 138.512 275.971 138.608 276.419 138.736V138.064C276.419 136.848 276.051 135.872 275.315 135.136C274.579 134.4 273.299 134.032 271.475 134.032C270.259 134.032 269.059 134.128 267.875 134.32C266.691 134.48 265.667 134.72 264.803 135.04L263.891 129.28C264.307 129.152 264.819 129.024 265.427 128.896C266.067 128.736 266.755 128.608 267.491 128.512C268.227 128.384 268.995 128.288 269.795 128.224C270.627 128.128 271.459 128.08 272.291 128.08Z" fill="white" fill-opacity="0.2"/>
<path d="M289.751 129.616C290.967 129.264 292.535 128.944 294.455 128.656C296.375 128.336 298.391 128.176 300.503 128.176C302.647 128.176 304.423 128.464 305.831 129.04C307.271 129.584 308.407 130.368 309.239 131.392C310.071 132.416 310.663 133.632 311.015 135.04C311.367 136.448 311.543 138.016 311.543 139.744V154H304.391V140.608C304.391 138.304 304.087 136.672 303.479 135.712C302.871 134.752 301.735 134.272 300.071 134.272C299.559 134.272 299.015 134.304 298.439 134.368C297.863 134.4 297.351 134.448 296.903 134.512V154H289.751V129.616Z" fill="white" fill-opacity="0.2"/>
<path d="M172.328 259.904C172.68 259.936 173.08 259.968 173.528 260C174.008 260 174.568 260 175.208 260C178.952 260 181.72 259.056 183.512 257.168C185.336 255.28 186.248 252.672 186.248 249.344C186.248 245.856 185.384 243.216 183.656 241.424C181.928 239.632 179.192 238.736 175.448 238.736C174.936 238.736 174.408 238.752 173.864 238.784C173.32 238.784 172.808 238.816 172.328 238.88V259.904ZM193.976 249.344C193.976 252.224 193.528 254.736 192.632 256.88C191.736 259.024 190.456 260.8 188.792 262.208C187.16 263.616 185.16 264.672 182.792 265.376C180.424 266.08 177.768 266.432 174.824 266.432C173.48 266.432 171.912 266.368 170.12 266.24C168.328 266.144 166.568 265.92 164.84 265.568V233.168C166.568 232.848 168.36 232.64 170.216 232.544C172.104 232.416 173.72 232.352 175.064 232.352C177.912 232.352 180.488 232.672 182.792 233.312C185.128 233.952 187.128 234.96 188.792 236.336C190.456 237.712 191.736 239.472 192.632 241.616C193.528 243.76 193.976 246.336 193.976 249.344Z" fill="white" fill-opacity="0.2"/>
<path d="M206.903 266H199.751V240.752H206.903V266ZM207.575 233.456C207.575 234.768 207.143 235.808 206.279 236.576C205.447 237.312 204.455 237.68 203.303 237.68C202.151 237.68 201.143 237.312 200.279 236.576C199.447 235.808 199.031 234.768 199.031 233.456C199.031 232.144 199.447 231.12 200.279 230.384C201.143 229.616 202.151 229.232 203.303 229.232C204.455 229.232 205.447 229.616 206.279 230.384C207.143 231.12 207.575 232.144 207.575 233.456Z" fill="white" fill-opacity="0.2"/>
<path d="M213.386 234.464L220.538 233.312V240.752H229.13V246.704H220.538V255.584C220.538 257.088 220.794 258.288 221.306 259.184C221.85 260.08 222.922 260.528 224.522 260.528C225.29 260.528 226.074 260.464 226.874 260.336C227.706 260.176 228.458 259.968 229.13 259.712L230.138 265.28C229.274 265.632 228.314 265.936 227.258 266.192C226.202 266.448 224.906 266.576 223.37 266.576C221.418 266.576 219.802 266.32 218.522 265.808C217.242 265.264 216.218 264.528 215.45 263.6C214.682 262.64 214.138 261.488 213.818 260.144C213.53 258.8 213.386 257.312 213.386 255.68V234.464Z" fill="white" fill-opacity="0.2"/>
<path d="M234.954 266V229.904L242.106 228.752V240.848C242.586 240.688 243.194 240.544 243.93 240.416C244.698 240.256 245.434 240.176 246.138 240.176C248.186 240.176 249.882 240.464 251.226 241.04C252.602 241.584 253.69 242.368 254.49 243.392C255.322 244.416 255.898 245.632 256.218 247.04C256.57 248.448 256.746 250.016 256.746 251.744V266H249.594V252.608C249.594 250.304 249.29 248.672 248.682 247.712C248.106 246.752 247.018 246.272 245.418 246.272C244.778 246.272 244.17 246.336 243.594 246.464C243.05 246.56 242.554 246.672 242.106 246.8V266H234.954Z" fill="white" fill-opacity="0.2"/>
<path d="M272.867 261.008C273.571 261.008 274.243 260.992 274.883 260.96C275.523 260.928 276.035 260.88 276.419 260.816V255.392C276.131 255.328 275.699 255.264 275.123 255.2C274.547 255.136 274.019 255.104 273.539 255.104C272.867 255.104 272.227 255.152 271.619 255.248C271.043 255.312 270.531 255.456 270.083 255.68C269.635 255.904 269.283 256.208 269.027 256.592C268.771 256.976 268.643 257.456 268.643 258.032C268.643 259.152 269.011 259.936 269.747 260.384C270.515 260.8 271.555 261.008 272.867 261.008ZM272.291 240.08C274.403 240.08 276.163 240.32 277.571 240.8C278.979 241.28 280.099 241.968 280.931 242.864C281.795 243.76 282.403 244.848 282.755 246.128C283.107 247.408 283.283 248.832 283.283 250.4V265.28C282.259 265.504 280.835 265.76 279.011 266.048C277.187 266.368 274.979 266.528 272.387 266.528C270.755 266.528 269.267 266.384 267.923 266.096C266.611 265.808 265.475 265.344 264.515 264.704C263.555 264.032 262.819 263.168 262.307 262.112C261.795 261.056 261.539 259.76 261.539 258.224C261.539 256.752 261.827 255.504 262.403 254.48C263.011 253.456 263.811 252.64 264.803 252.032C265.795 251.424 266.931 250.992 268.211 250.736C269.491 250.448 270.819 250.304 272.195 250.304C273.123 250.304 273.939 250.352 274.643 250.448C275.379 250.512 275.971 250.608 276.419 250.736V250.064C276.419 248.848 276.051 247.872 275.315 247.136C274.579 246.4 273.299 246.032 271.475 246.032C270.259 246.032 269.059 246.128 267.875 246.32C266.691 246.48 265.667 246.72 264.803 247.04L263.891 241.28C264.307 241.152 264.819 241.024 265.427 240.896C266.067 240.736 266.755 240.608 267.491 240.512C268.227 240.384 268.995 240.288 269.795 240.224C270.627 240.128 271.459 240.08 272.291 240.08Z" fill="white" fill-opacity="0.2"/>
<path d="M289.751 241.616C290.967 241.264 292.535 240.944 294.455 240.656C296.375 240.336 298.391 240.176 300.503 240.176C302.647 240.176 304.423 240.464 305.831 241.04C307.271 241.584 308.407 242.368 309.239 243.392C310.071 244.416 310.663 245.632 311.015 247.04C311.367 248.448 311.543 250.016 311.543 251.744V266H304.391V252.608C304.391 250.304 304.087 248.672 303.479 247.712C302.871 246.752 301.735 246.272 300.071 246.272C299.559 246.272 299.015 246.304 298.439 246.368C297.863 246.4 297.351 246.448 296.903 246.512V266H289.751V241.616Z" fill="white" fill-opacity="0.2"/>
<path d="M89.328 205.904C89.68 205.936 90.08 205.968 90.528 206C91.008 206 91.568 206 92.208 206C95.952 206 98.72 205.056 100.512 203.168C102.336 201.28 103.248 198.672 103.248 195.344C103.248 191.856 102.384 189.216 100.656 187.424C98.928 185.632 96.192 184.736 92.448 184.736C91.936 184.736 91.408 184.752 90.864 184.784C90.32 184.784 89.808 184.816 89.328 184.88V205.904ZM110.976 195.344C110.976 198.224 110.528 200.736 109.632 202.88C108.736 205.024 107.456 206.8 105.792 208.208C104.16 209.616 102.16 210.672 99.792 211.376C97.424 212.08 94.768 212.432 91.824 212.432C90.48 212.432 88.912 212.368 87.12 212.24C85.328 212.144 83.568 211.92 81.84 211.568V179.168C83.568 178.848 85.36 178.64 87.216 178.544C89.104 178.416 90.72 178.352 92.064 178.352C94.912 178.352 97.488 178.672 99.792 179.312C102.128 179.952 104.128 180.96 105.792 182.336C107.456 183.712 108.736 185.472 109.632 187.616C110.528 189.76 110.976 192.336 110.976 195.344Z" fill="white" fill-opacity="0.2"/>
<path d="M123.903 212H116.751V186.752H123.903V212ZM124.575 179.456C124.575 180.768 124.143 181.808 123.279 182.576C122.447 183.312 121.455 183.68 120.303 183.68C119.151 183.68 118.143 183.312 117.279 182.576C116.447 181.808 116.031 180.768 116.031 179.456C116.031 178.144 116.447 177.12 117.279 176.384C118.143 175.616 119.151 175.232 120.303 175.232C121.455 175.232 122.447 175.616 123.279 176.384C124.143 177.12 124.575 178.144 124.575 179.456Z" fill="white" fill-opacity="0.2"/>
<path d="M130.386 180.464L137.538 179.312V186.752H146.13V192.704H137.538V201.584C137.538 203.088 137.794 204.288 138.306 205.184C138.85 206.08 139.922 206.528 141.522 206.528C142.29 206.528 143.074 206.464 143.874 206.336C144.706 206.176 145.458 205.968 146.13 205.712L147.138 211.28C146.274 211.632 145.314 211.936 144.258 212.192C143.202 212.448 141.906 212.576 140.37 212.576C138.418 212.576 136.802 212.32 135.522 211.808C134.242 211.264 133.218 210.528 132.45 209.6C131.682 208.64 131.138 207.488 130.818 206.144C130.53 204.8 130.386 203.312 130.386 201.68V180.464Z" fill="white" fill-opacity="0.2"/>
<path d="M151.954 212V175.904L159.106 174.752V186.848C159.586 186.688 160.194 186.544 160.93 186.416C161.698 186.256 162.434 186.176 163.138 186.176C165.186 186.176 166.882 186.464 168.226 187.04C169.602 187.584 170.69 188.368 171.49 189.392C172.322 190.416 172.898 191.632 173.218 193.04C173.57 194.448 173.746 196.016 173.746 197.744V212H166.594V198.608C166.594 196.304 166.29 194.672 165.682 193.712C165.106 192.752 164.018 192.272 162.418 192.272C161.778 192.272 161.17 192.336 160.594 192.464C160.05 192.56 159.554 192.672 159.106 192.8V212H151.954Z" fill="white" fill-opacity="0.2"/>
<path d="M189.867 207.008C190.571 207.008 191.243 206.992 191.883 206.96C192.523 206.928 193.035 206.88 193.419 206.816V201.392C193.131 201.328 192.699 201.264 192.123 201.2C191.547 201.136 191.019 201.104 190.539 201.104C189.867 201.104 189.227 201.152 188.619 201.248C188.043 201.312 187.531 201.456 187.083 201.68C186.635 201.904 186.283 202.208 186.027 202.592C185.771 202.976 185.643 203.456 185.643 204.032C185.643 205.152 186.011 205.936 186.747 206.384C187.515 206.8 188.555 207.008 189.867 207.008ZM189.291 186.08C191.403 186.08 193.163 186.32 194.571 186.8C195.979 187.28 197.099 187.968 197.931 188.864C198.795 189.76 199.403 190.848 199.755 192.128C200.107 193.408 200.283 194.832 200.283 196.4V211.28C199.259 211.504 197.835 211.76 196.011 212.048C194.187 212.368 191.979 212.528 189.387 212.528C187.755 212.528 186.267 212.384 184.923 212.096C183.611 211.808 182.475 211.344 181.515 210.704C180.555 210.032 179.819 209.168 179.307 208.112C178.795 207.056 178.539 205.76 178.539 204.224C178.539 202.752 178.827 201.504 179.403 200.48C180.011 199.456 180.811 198.64 181.803 198.032C182.795 197.424 183.931 196.992 185.211 196.736C186.491 196.448 187.819 196.304 189.195 196.304C190.123 196.304 190.939 196.352 191.643 196.448C192.379 196.512 192.971 196.608 193.419 196.736V196.064C193.419 194.848 193.051 193.872 192.315 193.136C191.579 192.4 190.299 192.032 188.475 192.032C187.259 192.032 186.059 192.128 184.875 192.32C183.691 192.48 182.667 192.72 181.803 193.04L180.891 187.28C181.307 187.152 181.819 187.024 182.427 186.896C183.067 186.736 183.755 186.608 184.491 186.512C185.227 186.384 185.995 186.288 186.795 186.224C187.627 186.128 188.459 186.08 189.291 186.08Z" fill="white" fill-opacity="0.2"/>
<path d="M206.751 187.616C207.967 187.264 209.535 186.944 211.455 186.656C213.375 186.336 215.391 186.176 217.503 186.176C219.647 186.176 221.423 186.464 222.831 187.04C224.271 187.584 225.407 188.368 226.239 189.392C227.071 190.416 227.663 191.632 228.015 193.04C228.367 194.448 228.543 196.016 228.543 197.744V212H221.391V198.608C221.391 196.304 221.087 194.672 220.479 193.712C219.871 192.752 218.735 192.272 217.071 192.272C216.559 192.272 216.015 192.304 215.439 192.368C214.863 192.4 214.351 192.448 213.903 192.512V212H206.751V187.616Z" fill="white" fill-opacity="0.2"/>
</svg>
